<?xml version="1.0" encoding="utf-8"?>
<!-- Generator: Adobe Illustrator 23.0.6, SVG Export Plug-In . SVG Version: 6.00 Build 0)  -->
<svg version="1.1" id="Слой_1" xmlns="http://www.w3.org/2000/svg" xmlns:xlink="http://www.w3.org/1999/xlink" x="0px" y="0px"
	 viewBox="0 0 1000 1000" style="enable-background:new 0 0 1000 1000;" xml:space="preserve">
<style type="text/css">
	.st0{fill:#FFFFFF;}
	.st1{fill:#327236;}
</style>
<g>
	<path d="M502.15,113.22c214.77,0.14,387.76,174.33,387.88,387.76c0.12,214.63-174.25,388.4-388.34,388.23
		c-213.61-0.16-388.64-173.94-387.63-389.9C115.06,286.2,288.13,113.24,502.15,113.22z"/>
</g>
<g>
	<path class="st0" d="M745.13,554.19c-0.22-1.25-0.42-1.85-0.42-2.46c-0.02-47.34-0.02-94.68-0.01-142.02c0-0.62,0.23-1.23,0.4-2.04
		c3.95-0.98,7.94-0.37,11.88-0.46c3.8-0.09,7.62-0.14,11.5,0.09c0.91,1.9,0.62,3.67,0.62,5.38c0.03,14.71,0.01,29.43,0.02,44.14
		c0,1.53,0.11,3.07,0.19,5.42c0.9-1.06,1.31-1.45,1.61-1.92c1.56-2.41,2.93-4.96,4.66-7.25c4.75-6.28,11.16-10.02,18.89-11.27
		c7.03-1.13,14.03-0.75,20.82,1.68c6.98,2.5,11.99,7.15,15.16,13.84c2.08,4.39,3.22,9.04,3.63,13.85c0.34,3.98,0.53,7.98,0.54,11.98
		c0.05,21.59,0.03,43.18,0.01,64.77c0,1.88,0.21,3.8-0.45,5.77c-0.68,0.19-1.28,0.48-1.87,0.49c-7.18,0.03-14.35,0.02-21.39,0.02
		c-1.31-1.87-0.82-3.69-0.82-5.39c-0.04-21.11,0.01-42.22-0.06-63.33c-0.01-3.34-0.33-6.7-0.78-10.02
		c-1.16-8.65-9.16-13.59-16.33-13.14c-9.34,0.59-15.89,5.31-19.95,13.55c-2.82,5.71-3.35,11.96-3.75,18.2
		c-0.14,2.23-0.1,4.48-0.1,6.71c-0.01,15.83,0,31.67-0.01,47.5c0,1.74-0.09,3.47-0.14,5.45c-4.09,0.99-8.07,0.39-11.99,0.49
		C753.16,554.33,749.34,554.21,745.13,554.19z"/>
	<path class="st0" d="M170.44,407.56c0.74-0.13,1.34-0.34,1.94-0.34c29.89-0.02,59.77-0.01,89.78-0.01c0.3,0.72,0.73,1.28,0.73,1.84
		c0.03,6.55-0.01,13.1-0.05,19.66c0,0.28-0.24,0.56-0.5,1.11c-1.49,0.61-3.26,0.35-4.97,0.36c-18.07,0.02-36.13,0.01-54.2,0.02
		c-1.73,0-3.47,0.07-5.11,0.11c-0.32,0.75-0.66,1.18-0.66,1.61c-0.05,11.67-0.08,23.34-0.07,35c0,0.6,0.3,1.2,0.49,1.93
		c4.2,0.76,8.35,0.27,12.46,0.36c4.31,0.09,8.63,0.02,12.95,0.02c4.16,0,8.31-0.01,12.47,0c4.14,0.01,8.27,0.03,12.57,0.04
		c1.08,4.01,0.49,7.83,0.55,11.6c0.06,3.63,0.25,7.28-0.25,11.18c-5.84,0.53-11.4,0.19-16.95,0.25c-5.59,0.06-11.19,0.01-16.79,0.01
		c-5.58,0-11.16,0-16.65,0c-1.34,1.85-0.91,3.66-0.92,5.34c-0.04,16.95-0.02,33.89-0.03,50.84c0,1.72-0.13,3.44-0.2,5.1
		c-0.76,0.27-1.19,0.56-1.63,0.57c-7.67,0.04-15.34,0.06-23.02,0.05c-0.61,0-1.21-0.24-1.84-0.37c-0.91-1.75-0.52-3.55-0.52-5.26
		c-0.03-22.06-0.02-44.12-0.02-66.19c0-23.18,0-46.36,0.01-69.54C170.03,411.12,169.81,409.36,170.44,407.56z"/>
	<path class="st0" d="M618.58,502.6c-1.78,0.94-3.56,0.61-5.27,0.61c-16.3,0.03-32.61,0.02-48.91,0.02
		c-5.28,0-10.55-0.02-15.83,0.02c-1.24,0.01-2.47,0.2-3.48,0.29c-0.3,0.42-0.45,0.54-0.46,0.67c-0.49,6.63,0.03,13.17,3.15,19.12
		c4.29,8.2,11.51,12.3,20.57,12.86c11.06,0.69,20.47-3.85,25.28-14.49c0.32-0.71,0.73-1.38,1.23-2.33
		c7.16,0.7,14.22,1.64,21.53,2.99c-0.26,1.35-0.3,2.46-0.69,3.42c-6.81,16.52-18.87,26.65-36.6,29.54
		c-9.41,1.53-18.77,1.26-27.93-1.93c-12.66-4.41-21.38-13.02-26.95-25.03c-2.72-5.86-4.18-12.09-4.89-18.46
		c-1.07-9.6-0.71-19.15,1.78-28.55c2.38-8.98,6.62-16.97,12.98-23.72c6.91-7.33,15.43-11.75,25.37-13.44
		c6.52-1.11,13.03-1.2,19.57-0.28c14.55,2.04,24.92,9.99,31.97,22.64c3.79,6.79,5.98,14.1,7.01,21.77c0.38,2.85,0.64,5.72,0.84,8.59
		C618.98,498.79,619.11,500.7,618.58,502.6z M592.72,486.77c0.13-0.68,0.38-1.29,0.34-1.89c-0.54-8.43-3.89-15.42-10.82-20.43
		c-8.84-6.4-21.17-5.48-29.11,2.02c-4.35,4.11-6.72,9.27-7.91,15c-0.34,1.65-1.07,3.36-0.41,5.15c0.52,0.19,0.96,0.48,1.4,0.48
		c14.85,0.04,29.71,0.06,44.56,0.05C591.37,487.16,591.98,486.92,592.72,486.77z"/>
	<path class="st0" d="M484.08,553.67c-4,0.76-23.3,0.8-27.58,0.09c-0.94-1.57-0.51-3.37-0.51-5.08
		c-0.04-20.31-0.02-40.62-0.02-60.94c0-17.27,0.01-34.55-0.01-51.82c0-1.72,0.21-3.48-0.46-5.45c-1.45-0.1-2.84-0.28-4.24-0.28
		c-9.6-0.02-19.19-0.01-28.79-0.01c-1.58,0-3.17,0-4.9,0c-1.18-4.03-0.54-7.86-0.6-11.62c-0.06-3.63-0.31-7.29,0.28-11.05
		c1.08-0.13,1.84-0.3,2.61-0.3c34.21-0.01,68.41-0.01,102.72-0.01c0.32,0.83,0.72,1.39,0.72,1.96c0.04,6.71,0.03,13.42,0.03,19.89
		c-1.33,1.53-2.86,1.12-4.24,1.12c-9.76,0.04-19.51,0.01-29.27,0.03c-1.56,0-3.12,0.14-4.83,0.22c-0.23,1.04-0.49,1.78-0.53,2.54
		c-0.08,1.6-0.06,3.2-0.06,4.8c0,36.63,0,73.25-0.01,109.88C484.4,549.67,484.57,551.75,484.08,553.67z"/>
	<path class="st0" d="M329.63,592c-0.78-4.1-0.72-14.81,0.16-18.74c1.15-0.06,2.39-0.17,3.63-0.17c2.88-0.01,5.76,0.11,8.63,0
		c1.9-0.07,3.81-0.36,5.68-0.72c3.88-0.75,6.74-3.03,8.31-6.58c1.41-3.2,2.42-6.58,3.6-9.89c0.58-1.64-0.04-3.15-0.58-4.66
		c-2.42-6.77-4.85-13.54-7.31-20.29c-7.5-20.56-15.03-41.11-22.54-61.67c-2.52-6.9-5.06-13.8-7.57-20.71
		c-0.31-0.87-0.5-1.78-0.75-2.68c3.6-0.78,19.91-0.9,25.29-0.19c4.54,11.39,8.57,23.15,12.85,34.82c4.28,11.68,8.44,23.4,12.8,34.91
		c1.77,0.07,1.66-1.18,1.91-1.97c3.11-9.74,6.16-19.49,9.24-29.24c3.76-11.88,7.53-23.76,11.31-35.63c0.33-1.04,0.82-2.04,1.29-3.16
		c6.16,0,12.2,0,18.18,0c0.83,1.45,0.07,2.61-0.31,3.75c-3.62,10.75-7.29,21.48-10.95,32.22c-7.48,21.92-14.96,43.84-22.46,65.76
		c-2.85,8.31-5.72,16.62-8.66,24.9c-1.34,3.78-3.32,7.24-5.65,10.53c-3.78,5.33-8.74,8.71-15.23,9.94
		C344.85,593.58,335.22,593.48,329.63,592z"/>
	<path class="st0" d="M724.29,480.04c-7.17,1.21-13.7,2.42-20.52,2.93c-0.37-1.11-0.67-1.99-0.94-2.87
		c-0.37-1.22-0.68-2.47-1.09-3.68c-4.55-13.49-21.58-17.81-31.97-7.99c-1.92,1.82-3.37,4.24-4.66,6.6
		c-2.71,4.97-3.96,10.46-4.72,16.01c-1.18,8.62-0.93,17.22,1.24,25.7c1,3.91,2.66,7.5,4.99,10.81c7.02,9.98,23.82,10.52,31.22-0.63
		c1.49-2.24,2.6-4.75,3.74-7.21c0.73-1.57,1.2-3.27,1.87-5.13c3.62-0.6,7.03,0.62,10.48,0.72c3.33,0.1,6.63,0.43,9.73,1.11
		c0.17,0.68,0.35,1,0.3,1.27c-1.56,8.09-4.3,15.74-9.29,22.37c-6.11,8.13-14.33,13.07-24.27,15.1c-7.14,1.46-14.33,1.4-21.43-0.18
		c-10.48-2.33-18.61-8.14-24.51-17.1c-5.09-7.73-8.33-16.17-9.7-25.31c-1.36-9.08-1.35-18.17,0.29-27.21
		c1.68-9.28,5.34-17.71,11.13-25.18c7.67-9.89,17.78-15.44,30.17-16.61c7.84-0.74,15.62-0.27,23.16,2.49
		c7.67,2.8,13.57,7.65,17.83,14.56C720.91,466.41,722.97,472.72,724.29,480.04z"/>
	<path class="st0" d="M305.18,553.57c-4.44,0.89-20.06,0.89-24.05,0.11c-0.14-0.54-0.43-1.15-0.43-1.76
		c-0.01-47.65,0.01-95.3,0.05-142.95c0-0.43,0.33-0.87,0.49-1.26c4.06-0.74,19.47-0.73,23.61,0.07c0.1,0.82,0.26,1.73,0.3,2.65
		c0.06,1.12,0.02,2.24,0.02,3.36c0,44.61,0,89.23,0,133.84C305.18,549.52,305.18,551.42,305.18,553.57z"/>
</g>
<g>
	<path class="st1" d="M502.18,856.24c-13.28,0.06-24.07-10.68-24.09-23.99c-0.02-13.33,10.71-23.98,24.06-23.99
		c11.65-0.01,23.62,9.07,23.88,23.73C526.28,845.24,515.39,856.18,502.18,856.24z"/>
	<path class="st1" d="M501.99,690.24c-13.84-0.21-24.02-11.31-23.91-24.19c0.11-13.14,10.64-23.7,23.78-23.79
		c13.2-0.09,24.12,10.35,24.17,23.9C526.08,679.21,515.77,690.08,501.99,690.24z"/>
	<path class="st1" d="M502.15,230.27c13.11,0.15,23.98,10.49,23.88,24.2c-0.09,12.9-10.5,23.67-23.85,23.77
		c-13.27,0.1-24.08-10.68-24.09-23.98C478.07,240.92,488.81,230.22,502.15,230.27z"/>
	<path class="st1" d="M502.88,361.13c-13.34-0.07-23.97-10.86-23.83-24.21c0.13-12.99,10.94-23.73,23.91-23.76
		c13.17-0.04,24.09,10.9,24.06,24.09C527,350.59,516.27,361.2,502.88,361.13z"/>
	<path class="st1" d="M502.83,195.18c-14.52-0.4-23.98-12.02-23.79-24.3c0.19-13.01,10.93-23.65,23.97-23.67
		c13.23-0.02,24.03,10.85,24.03,24.08C527.04,183.48,517.42,195.05,502.83,195.18z"/>
	<path class="st1" d="M526.07,749.1c-0.06,13.88-11.36,24.18-24.14,24.03c-13.25-0.15-23.78-10.59-23.83-23.8
		c-0.05-13.5,10.7-24.19,24.09-24.09C515.55,725.32,525.81,735.81,526.07,749.1z"/>
</g>
</svg>
